<svg width="18" height="18" viewBox="0 0 18 18" fill="none" xmlns="http://www.w3.org/2000/svg">
<g clip-path="url(#clip0)">
<path d="M17.9531 6.90472C17.8353 6.54024 17.512 6.28137 17.1295 6.2469L11.9342 5.77516L9.87985 0.966735C9.72837 0.61434 9.38339 0.38623 9.0001 0.38623C8.6168 0.38623 8.27182 0.61434 8.12034 0.967559L6.06598 5.77516L0.869868 6.2469C0.488084 6.28219 0.165627 6.54024 0.0471085 6.90472C-0.0714095 7.2692 0.0380446 7.66898 0.326855 7.92098L4.25388 11.365L3.09589 16.466C3.01116 16.841 3.15673 17.2287 3.46793 17.4537C3.6352 17.5745 3.8309 17.636 4.02824 17.636C4.1984 17.636 4.36718 17.5902 4.51866 17.4995L9.0001 14.8211L13.4799 17.4995C13.8077 17.6967 14.2209 17.6787 14.5314 17.4537C14.8428 17.228 14.9882 16.8402 14.9035 16.466L13.7455 11.365L17.6725 7.92167C17.9613 7.66898 18.0716 7.26989 17.9531 6.90472Z" fill="#EA8432"/>
</g>
<defs>
<clipPath id="clip0">
<rect width="18" height="18" fill="white"/>
</clipPath>
</defs>
</svg>
